# xmcd
#
# Track frame offsets: 
#        150
#        19510
#        35372
#        53635
#        66072
#        79947
#        93947
#        113460
#        128685
#        144310
#        157310
#        178935
#        194622
#        207310
#        224460
#        238885
#
# Disc length: 3438 seconds
#
# Revision: 2
# Processed by: cddbd v1.5.2PL0 Copyright (c) Steve Scherf et al.
# Submitted via: ExactAudioCopy v1.0b3
#
DISCID=e20d6c10
DTITLE=Julio Iglesias - Schenk Mir Deine Liebe
DYEAR=1999
DGENRE=Schlager
TTITLE0=Wenn ein Schiff vorueberfaehrt (Un Canto A Galicia)
TTITLE1=Du bist die Sonne in meinen Augen (Sentado A Beira Do Caminho)
TTITLE2=Quiereme Mucho
TTITLE3=Meine Liebe, die findet zu dir (Mi Amor Es Mas Joven Que Yo)
TTITLE4=Er war ja nur ein Zigeuner (Sequire Mi Camino)
TTITLE5=Kein Addio, kein Goodbye
TTITLE6=Alle Liebe dieser Erde
TTITLE7=Und das Meer singt sein Lied (Cantandole Al Mar)
TTITLE8=Schenk mir deine Liebe
TTITLE9=Du in deiner Welt (Rio Rebelde)
TTITLE10=Me Olvide De Vivir
TTITLE11=Cu-Cu-Rru-Cu-Cu Paloma
TTITLE12=A Veces Tu, A Veces Yo
TTITLE13=Ich schick' dir eine weisse Wolke
TTITLE14=Komm wieder Madonna
TTITLE15=Un Canto A Galicia
EXTD=
EXTT0=
EXTT1=
EXTT2=
EXTT3=
EXTT4=
EXTT5=
EXTT6=
EXTT7=
EXTT8=
EXTT9=
EXTT10=
EXTT11=
EXTT12=
EXTT13=
EXTT14=
EXTT15=
PLAYORDER=
